# xmcd CD database file
#
# Track frame offsets:
#	150
#	14582
#	27005
#	38515
#	53559
#	66514
#	83088
#	94124
#	106009
#	116519
#	130417
#	144335
#	156779
#	167451
#	177391
#	190006
#	203037
#	216174
#	232151
#	243791
#	256437
#	267018
#	278649
#	290598
#	303161
#	317394
#	340127
#
# Disc length: 4648 seconds
#
# Revision: 0
# Processed by: cddbd v1.5.2PL0 Copyright (c) Steve Scherf et al.
# Submitted via: CDex 1.51
#
DISCID=6e12261b
DTITLE=Elmore James - The Broomdusters Box CD2
DYEAR=1900
DGENRE=Blues
TTITLE0=Dust My Blues
TTITLE1=(I Get the) Blues Before Sunrise
TTITLE2=So Mean to Me
TTITLE3=Wild About You
TTITLE4=Elmo's Shuffle
TTITLE5=Long Tall Woman
TTITLE6=Coming Home
TTITLE7=Knocking at Your Door
TTITLE8=Elmore's Contribution to Jazz
TTITLE9=The Twelve Year Old Boy
TTITLE10=It Hurts Me Too
TTITLE11=Cry For Me Baby
TTITLE12=Take Me Where You Go
TTITLE13=Bobby's Rock
TTITLE14=The Sky is Crying
TTITLE15=Held My Baby Last Night
TTITLE16=Baby Please Set a Date
TTITLE17=I Need You, Baby
TTITLE18=Rollin' and Tumblin'
TTITLE19=I'm Worried
TTITLE20=Done Somebody Wrong
TTITLE21=Fine Little Mama
TTITLE22=I Can't Stop Loving You
TTITLE23=Early One Morning
TTITLE24=Strange Angels
TTITLE25=Something Inside Me
TTITLE26=She Done Moved
EXTD=
EXTT0=
EXTT1=
EXTT2=
EXTT3=
EXTT4=
EXTT5=
EXTT6=
EXTT7=
EXTT8=
EXTT9=
EXTT10=
EXTT11=
EXTT12=
EXTT13=
EXTT14=
EXTT15=
EXTT16=
EXTT17=
EXTT18=
EXTT19=
EXTT20=
EXTT21=
EXTT22=
EXTT23=
EXTT24=
EXTT25=
EXTT26=
PLAYORDER=
